<?xml version="1.0" standalone="no"?>
<!DOCTYPE svg PUBLIC "-//W3C//DTD SVG 20010904//EN"
 "http://www.w3.org/TR/2001/REC-SVG-20010904/DTD/svg10.dtd">
<svg version="1.0" xmlns="http://www.w3.org/2000/svg"
 width="320.000000pt" height="320.000000pt" viewBox="0 0 320.000000 320.000000"
 preserveAspectRatio="xMidYMid meet">
<metadata>
Created by potrace 1.14, written by Peter Selinger 2001-2017
</metadata>
<g transform="translate(0.000000,320.000000) scale(0.100000,-0.100000)"
fill="#000000" stroke="none">
<path d="M2157 2813 c-4 -3 -7 -187 -7 -407 l0 -401 -180 -180 -180 -180 0
308 c0 193 -4 316 -10 328 -10 18 -24 19 -285 19 -150 0 -280 -3 -289 -6 -14
-5 -16 -35 -16 -233 l0 -226 -180 -180 -180 -180 0 87 c0 48 -4 98 -10 112
l-10 26 -285 0 -285 0 -11 -26 c-6 -17 -9 -218 -7 -551 3 -506 4 -525 22 -539
29 -21 533 -21 562 0 18 13 19 30 22 238 l3 224 180 180 179 179 0 -407 c0
-392 1 -408 19 -418 12 -6 119 -10 278 -10 218 0 262 2 281 16 22 15 22 16 22
327 l0 312 180 180 180 180 0 -498 0 -497 27 -11 c16 -6 128 -9 290 -7 221 3
265 5 273 18 6 9 10 278 10 678 0 558 2 662 14 662 42 0 55 33 132 330 82 317
83 331 32 359 -24 14 -33 14 -92 -2 -35 -9 -69 -17 -75 -17 -7 0 -11 33 -11
94 0 52 -3 101 -6 110 -5 14 -41 16 -293 16 -158 0 -291 -3 -294 -7z m351
-666 l62 -62 -433 -432 -432 -432 -135 235 c-74 129 -138 241 -142 247 -5 8
-188 -168 -505 -486 -274 -273 -503 -497 -508 -497 -13 0 -125 112 -125 125 0
6 262 272 583 593 444 444 586 580 593 570 6 -7 71 -118 144 -245 74 -128 136
-233 139 -233 4 0 159 153 346 340 187 187 342 340 345 340 3 0 34 -28 68 -63z"/>
</g>
</svg>
